<svg width="135" height="16" viewBox="0 0 135 16" fill="none" xmlns="http://www.w3.org/2000/svg">
<rect width="135" height="16" fill="#F6F6F6"/>
<g id="Landingpage" clip-path="url(#clip0_0_1)">
<rect width="1440" height="5189" transform="translate(-150 -4406)" fill="white"/>
<g id="Rectangle 269" opacity="0.06" filter="url(#filter0_f_0_1)">
<rect x="31.4141" y="119.775" width="1077.17" height="250" rx="10" fill="#0D1025"/>
</g>
<g id="Group 1173">
<g id="Rectangle 266" opacity="0.06" filter="url(#filter1_f_0_1)">
<rect x="40.8235" y="-311.747" width="318.353" height="300.806" rx="10" fill="#0D1025"/>
</g>
<g id="Group 1300">
<circle id="Ellipse 172" cx="67.5" cy="8.25293" r="7.5" fill="#DDE0E4"/>
<circle id="Ellipse 173" cx="97.5" cy="8.25293" r="7.5" fill="#DDE0E4"/>
<circle id="Ellipse 174" cx="127.5" cy="8.25293" r="7.5" fill="#DDE0E4"/>
<path id="Union" fill-rule="evenodd" clip-rule="evenodd" d="M7.55721 15.7527C7.53816 15.7529 7.51909 15.7529 7.5 15.7529C7.48091 15.7529 7.46184 15.7529 7.44279 15.7527H6.9469V15.7328C3.06303 15.4497 0 12.209 0 8.25293C0 4.29682 3.06303 1.05612 6.9469 0.773015V0.75293H7.5H37.0841V0.764267C37.2218 0.756742 37.3604 0.75293 37.5 0.75293C41.6421 0.75293 45 4.11079 45 8.25293C45 12.3951 41.6421 15.7529 37.5 15.7529C37.3604 15.7529 37.2218 15.7491 37.0841 15.7416V15.7527H7.55721Z" fill="#F53838"/>
</g>
</g>
</g>
<defs>
<filter id="filter0_f_0_1" x="-82.5859" y="5.77539" width="1305.17" height="478" filterUnits="userSpaceOnUse" color-interpolation-filters="sRGB">
<feFlood flood-opacity="0" result="BackgroundImageFix"/>
<feBlend mode="normal" in="SourceGraphic" in2="BackgroundImageFix" result="shape"/>
<feGaussianBlur stdDeviation="57" result="effect1_foregroundBlur_0_1"/>
</filter>
<filter id="filter1_f_0_1" x="-73.1765" y="-425.747" width="546.353" height="528.806" filterUnits="userSpaceOnUse" color-interpolation-filters="sRGB">
<feFlood flood-opacity="0" result="BackgroundImageFix"/>
<feBlend mode="normal" in="SourceGraphic" in2="BackgroundImageFix" result="shape"/>
<feGaussianBlur stdDeviation="57" result="effect1_foregroundBlur_0_1"/>
</filter>
<clipPath id="clip0_0_1">
<rect width="1440" height="5189" fill="white" transform="translate(-150 -4406)"/>
</clipPath>
</defs>
</svg>
